<svg width="130" height="40" viewBox="0 0 130 40" fill="none" xmlns="http://www.w3.org/2000/svg"><path d="M51.37 40h-5.619c-2.36 0-3.565-.53-4.432-1.705-.93-1.24-.93-3.144-.93-4.931V.016h7.224V34.44c0 2.731.29 4.667 3.742 5.445V40h.016zm-14.77-.016h-9.04l-6.648-14.657c-3.629 2.003-5.7 6.628-9.377 9.69-1.878 1.564-4.062 2.948-6.792 3.893-1.236.424-3.34.977-4.126 1.059-.338.032-.562.016-.61-.098-.033-.098.048-.163.4-.342.402-.195 2.056-.896 3.1-1.629 1.3-.928 2.039-1.922 2.103-2.687-.353-1.27-2.906-4.104-.305-9.3.931-1.873 1.734-3.209 2.312-4.56.659-1.548 1.14-3.73 1.3-5.359.017-.098.033-.098.081-.033 1.269 1.303 6.182 6.418 5.46 11.516 1.637-.636 4.463-2.574 5.764-3.6 1.38-1.091 2.28-2.215 3.741-2.248 1.3-.016 1.413.62 2.457.75.256.032.642-.017.835-.114.08-.033.064-.13-.065-.163-1.413-.342-1.766-1.515-3.596-1.515-1.638 0-2.955 1.531-3.902 2.166l-4.64-9.805C13.125 8.844 13.702 5.863 17.974 0l18.625 39.984zM65.162 40h-5.62c-2.36 0-3.565-.53-4.431-1.705-.932-1.24-.932-3.144-.932-4.931V.016h7.226V34.44c0 2.731.289 4.667 3.74 5.445V40h.017zM73.82 9.61h-2.666l-.37.863h-1.429l2.858-6.597h.546l2.859 6.597h-1.43l-.369-.864zm-1.317-3.323l-.852 2.215h1.719l-.868-2.215zm10.339-2.101c.498.293.9.684 1.189 1.205l-1.012.717C82.553 5.375 81.943 5 81.156 5c-.61 0-1.107.196-1.509.603-.401.407-.594.928-.594 1.563 0 .636.193 1.157.594 1.548.402.407.9.602 1.51.602.786 0 1.396-.374 1.862-1.107l1.012.716a3.042 3.042 0 01-1.189 1.206 3.36 3.36 0 01-1.702.44c-.979 0-1.798-.326-2.456-.978-.675-.651-.996-1.466-.996-2.443 0-.96.337-1.775 1.012-2.427.674-.651 1.493-.977 2.456-.977.627 0 1.189.147 1.686.44zm8.88 0c.497.293.899.684 1.188 1.205l-1.012.717C91.433 5.375 90.822 5 90.036 5c-.61 0-1.108.196-1.51.603-.401.407-.594.928-.594 1.563 0 .636.193 1.157.594 1.548.402.407.9.602 1.51.602.786 0 1.397-.374 1.862-1.107l1.012.716a3.042 3.042 0 01-1.188 1.206 3.36 3.36 0 01-1.702.44c-.98 0-1.799-.326-2.457-.978-.675-.651-.996-1.466-.996-2.443 0-.96.338-1.775 1.012-2.427.674-.651 1.493-.977 2.457-.977a3.26 3.26 0 011.686.44zm9.65.554c.674.65 1.011 1.465 1.011 2.426 0 .961-.337 1.776-1.011 2.443-.675.652-1.494.977-2.457.977-.963 0-1.782-.325-2.44-.977-.675-.651-1.012-1.466-1.012-2.443 0-.96.337-1.775 1.011-2.427.675-.651 1.494-.977 2.441-.977.947 0 1.766.31 2.457.977zm-3.95.863c-.402.407-.594.928-.594 1.563 0 .635.192 1.157.594 1.564.385.407.899.602 1.509.602.594 0 1.092-.195 1.493-.602.402-.407.594-.929.594-1.564s-.192-1.156-.594-1.563c-.401-.408-.899-.603-1.493-.603-.61 0-1.108.195-1.51.603zm12.074 4.87l-1.686-2.33h-.979v2.33h-1.333V3.875h2.441c.69 0 1.252.196 1.686.587.433.39.658.912.658 1.547 0 .423-.096.798-.305 1.107-.209.326-.482.57-.835.75l1.847 2.606h-1.494zm-2.665-3.519h1.108c.305 0 .546-.08.722-.26.177-.18.257-.407.257-.684a.938.938 0 00-.273-.684c-.176-.18-.417-.26-.722-.26h-1.108v1.889h.016zM70.704 23.681h2.842v1.222H69.37v-6.596h1.333v5.374zm6.936 1.222h-1.332v-6.596h1.332v6.596zm8.96-6.613l-2.842 6.597h-.546l-2.858-6.596h1.51l1.62 4.006 1.623-4.006H86.6zm7.097 1.222h-3.05v1.335h2.231v1.157h-2.231v1.677h3.163v1.222h-4.496v-6.596h4.383v1.205zM70.704 38.524h2.842v1.222H69.37v-6.597h1.333v5.375zm6.936 1.222h-1.333v-6.597h1.333v6.597zm9.778-6.613v6.613h-1.332V36.21l-1.638 2.085h-.434l-1.638-2.085v3.535h-1.332v-6.613h.514l2.665 3.47 2.665-3.47h.53zm4.753 6.613h-1.333v-6.597h1.333v6.597zm8.205-5.391h-2.087v5.375h-1.333v-5.375h-2.087v-1.206h5.507v1.206zm4.062 4.169h2.842v1.222h-4.174v-6.597h1.332v5.375zm9.988-4.169h-3.051v1.335h2.232v1.157h-2.232v1.677h3.163v1.222h-4.496v-6.597h4.384v1.206zm6.374-.994c.369.228.642.538.851.912l-.899.717c-.337-.505-.755-.766-1.237-.766a.97.97 0 00-.578.163c-.16.114-.224.26-.224.473 0 .179.064.31.176.407.113.097.305.211.594.342l.739.326c.546.244.947.52 1.22.814.257.293.402.668.402 1.107 0 .603-.209 1.075-.643 1.434-.433.358-.979.537-1.637.537-.546 0-1.044-.13-1.478-.39a2.811 2.811 0 01-1.027-1.06l.915-.7c.45.636.979.961 1.59.961.289 0 .513-.065.674-.195a.653.653 0 00.241-.538.588.588 0 00-.113-.358.838.838 0 00-.256-.228c-.097-.049-.241-.13-.466-.228l-.707-.326c-.513-.228-.899-.505-1.172-.798-.273-.293-.401-.668-.401-1.107 0-.554.209-1.01.61-1.352.401-.342.931-.521 1.541-.521.498.032.932.146 1.285.374zm7.274 0c.369.228.642.538.851.912l-.899.717c-.338-.505-.755-.766-1.237-.766a.968.968 0 00-.578.163c-.16.114-.225.26-.225.473 0 .179.065.31.177.407.112.097.305.211.594.342l.739.326c.546.244.947.52 1.22.814.257.293.402.668.402 1.107 0 .603-.209 1.075-.643 1.434-.433.358-.979.537-1.638.537-.545 0-1.043-.13-1.477-.39a2.804 2.804 0 01-1.027-1.06l.915-.7c.449.636.979.961 1.589.961.289 0 .514-.065.675-.195.16-.13.241-.31.241-.538a.588.588 0 00-.113-.358.83.83 0 00-.257-.228c-.096-.049-.24-.13-.465-.228l-.707-.326c-.514-.228-.899-.505-1.172-.798-.273-.293-.401-.668-.401-1.107 0-.554.208-1.01.61-1.352.401-.342.931-.521 1.541-.521.482.032.916.146 1.285.374z" fill="#1e1852"/></svg>